# xmcd CD database file
#
# Track frame offsets:
#	150
#	15622
#	33645
#	57215
#	79890
#	112670
#	139145
#	155677
#	171335
#	195357
#	221197
#	238730
#
# Disc length: 3600 seconds
#
# Revision: 0
# Processed by: cddbd v1.5PL3 Copyright (c) Steve Scherf et al.
# Submitted via: CDex 1.51
#
DISCID=a30e0e0c
DTITLE=RAM - HOME FAMILY LOVE
DYEAR=2003
DGENRE=Acoustic
TTITLE0=THEME OF RAM
TTITLE1=RABBIT FOOT BLUES
TTITLE2=LOVE
TTITLE3=FAMILY
TTITLE4=SACRED ISLAND(Moku la’a)
TTITLE5=NO RETURN
TTITLE6=TONE LILAC
TTITLE7=HOME
TTITLE8=MEA-E
TTITLE9=RHYTHMIST
TTITLE10=HOLIDAY
TTITLE11=GRASS MAN
EXTD=YEAR: 2003
EXTT0=
EXTT1=
EXTT2=
EXTT3=
EXTT4=
EXTT5=
EXTT6=
EXTT7=
EXTT8=
EXTT9=
EXTT10=
EXTT11=
PLAYORDER=
